<?xml version="1.0" encoding="UTF-8" standalone="no"?>
<!DOCTYPE svg PUBLIC "-//W3C//DTD SVG 1.1//EN"
 "http://www.w3.org/Graphics/SVG/1.1/DTD/svg11.dtd">
<!-- Generated by graphviz version 2.40.1 (20161225.0304)
 -->
<!-- Title: %3 Pages: 1 -->
<svg width="175pt" height="336pt"
 viewBox="0.00 0.00 175.00 336.00" xmlns="http://www.w3.org/2000/svg" xmlns:xlink="http://www.w3.org/1999/xlink">
<g id="graph0" class="graph" transform="scale(1 1) rotate(0) translate(4 332)">
<title>%3</title>
<polygon fill="#ffffff" stroke="transparent" points="-4,4 -4,-332 171,-332 171,4 -4,4"/>
<!-- 1 -->
<g id="node1" class="node">
<title>1</title>
<g id="a_node1"><a xlink:title="sleeper.py">
<polygon fill="#ff0000" stroke="#ff0000" points="135,-236 32,-236 32,-184 135,-184 135,-236"/>
<text text-anchor="middle" x="83.5" y="-224" font-family="Arial" font-size="10.00" fill="#ffffff">sleeper:2:&lt;module&gt;</text>
<text text-anchor="middle" x="83.5" y="-213" font-family="Arial" font-size="10.00" fill="#ffffff">100.00%</text>
<text text-anchor="middle" x="83.5" y="-202" font-family="Arial" font-size="10.00" fill="#ffffff">(0.00%)</text>
<text text-anchor="middle" x="83.5" y="-191" font-family="Arial" font-size="10.00" fill="#ffffff">1×</text>
</a>
</g>
</g>
<!-- 2 -->
<g id="node2" class="node">
<title>2</title>
<g id="a_node2"><a xlink:title="sleeper.py">
<polygon fill="#ff0000" stroke="#ff0000" points="152,-144 15,-144 15,-92 152,-92 152,-144"/>
<text text-anchor="middle" x="83.5" y="-132" font-family="Arial" font-size="10.00" fill="#ffffff">sleeper:7:iterate_with_sleep</text>
<text text-anchor="middle" x="83.5" y="-121" font-family="Arial" font-size="10.00" fill="#ffffff">100.00%</text>
<text text-anchor="middle" x="83.5" y="-110" font-family="Arial" font-size="10.00" fill="#ffffff">(0.00%)</text>
<text text-anchor="middle" x="83.5" y="-99" font-family="Arial" font-size="10.00" fill="#ffffff">1×</text>
</a>
</g>
</g>
<!-- 1&#45;&gt;2 -->
<g id="edge1" class="edge">
<title>1&#45;&gt;2</title>
<path fill="none" stroke="#ff0000" stroke-width="4" d="M83.5,-183.8826C83.5,-174.6565 83.5,-164.1091 83.5,-154.1983"/>
<polygon fill="#ff0000" stroke="#ff0000" stroke-width="4" points="87.0001,-154.1827 83.5,-144.1827 80.0001,-154.1828 87.0001,-154.1827"/>
<text text-anchor="middle" x="103" y="-167" font-family="Arial" font-size="10.00" fill="#ff0000">100.00%</text>
<text text-anchor="middle" x="103" y="-156" font-family="Arial" font-size="10.00" fill="#ff0000">1×</text>
</g>
<!-- 4 -->
<g id="node3" class="node">
<title>4</title>
<g id="a_node3"><a xlink:title="~">
<polygon fill="#ff0000" stroke="#ff0000" points="162.5,-52 4.5,-52 4.5,0 162.5,0 162.5,-52"/>
<text text-anchor="middle" x="83.5" y="-40" font-family="Arial" font-size="10.00" fill="#ffffff">~:0:&lt;built&#45;in method time.sleep&gt;</text>
<text text-anchor="middle" x="83.5" y="-29" font-family="Arial" font-size="10.00" fill="#ffffff">99.99%</text>
<text text-anchor="middle" x="83.5" y="-18" font-family="Arial" font-size="10.00" fill="#ffffff">(99.99%)</text>
<text text-anchor="middle" x="83.5" y="-7" font-family="Arial" font-size="10.00" fill="#ffffff">5×</text>
</a>
</g>
</g>
<!-- 2&#45;&gt;4 -->
<g id="edge2" class="edge">
<title>2&#45;&gt;4</title>
<path fill="none" stroke="#ff0000" stroke-width="4" d="M83.5,-91.8826C83.5,-82.6565 83.5,-72.1091 83.5,-62.1983"/>
<polygon fill="#ff0000" stroke="#ff0000" stroke-width="4" points="87.0001,-62.1827 83.5,-52.1827 80.0001,-62.1828 87.0001,-62.1827"/>
<text text-anchor="middle" x="100.5" y="-75" font-family="Arial" font-size="10.00" fill="#ff0000">99.99%</text>
<text text-anchor="middle" x="100.5" y="-64" font-family="Arial" font-size="10.00" fill="#ff0000">5×</text>
</g>
<!-- 3 -->
<g id="node4" class="node">
<title>3</title>
<g id="a_node4"><a xlink:title="~">
<polygon fill="#ff0000" stroke="#ff0000" points="167,-328 0,-328 0,-276 167,-276 167,-328"/>
<text text-anchor="middle" x="83.5" y="-316" font-family="Arial" font-size="10.00" fill="#ffffff">~:0:&lt;built&#45;in method builtins.exec&gt;</text>
<text text-anchor="middle" x="83.5" y="-305" font-family="Arial" font-size="10.00" fill="#ffffff">100.00%</text>
<text text-anchor="middle" x="83.5" y="-294" font-family="Arial" font-size="10.00" fill="#ffffff">(0.00%)</text>
<text text-anchor="middle" x="83.5" y="-283" font-family="Arial" font-size="10.00" fill="#ffffff">1×</text>
</a>
</g>
</g>
<!-- 3&#45;&gt;1 -->
<g id="edge3" class="edge">
<title>3&#45;&gt;1</title>
<path fill="none" stroke="#ff0000" stroke-width="4" d="M83.5,-275.8826C83.5,-266.6565 83.5,-256.1091 83.5,-246.1983"/>
<polygon fill="#ff0000" stroke="#ff0000" stroke-width="4" points="87.0001,-246.1827 83.5,-236.1827 80.0001,-246.1828 87.0001,-246.1827"/>
<text text-anchor="middle" x="103" y="-259" font-family="Arial" font-size="10.00" fill="#ff0000">100.00%</text>
<text text-anchor="middle" x="103" y="-248" font-family="Arial" font-size="10.00" fill="#ff0000">1×</text>
</g>
</g>
</svg>
